<svg xmlns="http://www.w3.org/2000/svg" width="1000" height="260" viewBox="0 0 1000 260" role="img" aria-labelledby="title desc">
  <title id="title">Shilong Wang — Researcher and Developer</title>
  <desc id="desc">A purple and blue profile banner inspired by spatial omics, artificial intelligence, and medical imaging.</desc>
  <defs>
    <linearGradient id="bg" x1="0" y1="0" x2="1" y2="1">
      <stop offset="0" stop-color="#170c3a"/>
      <stop offset=".48" stop-color="#5b21b6"/>
      <stop offset="1" stop-color="#0e7490"/>
    </linearGradient>
    <radialGradient id="glow">
      <stop offset="0" stop-color="#f0abfc" stop-opacity=".85"/>
      <stop offset=".45" stop-color="#a855f7" stop-opacity=".25"/>
      <stop offset="1" stop-color="#a855f7" stop-opacity="0"/>
    </radialGradient>
    <filter id="soft"><feGaussianBlur stdDeviation="18"/></filter>
  </defs>

  <rect width="1000" height="260" rx="18" fill="url(#bg)"/>
  <circle cx="500" cy="15" r="260" fill="url(#glow)" opacity=".72"/>
  <circle cx="120" cy="220" r="110" fill="#22d3ee" opacity=".09" filter="url(#soft)"/>
  <circle cx="900" cy="35" r="95" fill="#f472b6" opacity=".11" filter="url(#soft)"/>

  <g opacity=".38" fill="none" stroke="#e9d5ff" stroke-width="1.5">
    <path d="M43 68 C105 18 155 118 217 68 S329 118 390 68"/>
    <path d="M610 193 C671 143 722 243 783 193 S895 243 957 193"/>
    <path d="M76 180 L128 150 L180 180 L232 150"/>
    <path d="M768 71 L820 41 L872 71 L924 41"/>
  </g>

  <g fill="#fff">
    <g opacity=".28">
      <circle cx="69" cy="45" r="3"/><circle cx="156" cy="34" r="2"/><circle cx="239" cy="97" r="3"/>
      <circle cx="768" cy="38" r="3"/><circle cx="905" cy="91" r="2"/><circle cx="947" cy="145" r="3"/>
      <circle cx="317" cy="214" r="2"/><circle cx="689" cy="224" r="2"/>
    </g>
    <circle cx="500" cy="56" r="31" fill="#ffffff" fill-opacity=".13" stroke="#ffffff" stroke-opacity=".7" stroke-width="2"/>
    <text x="500" y="65" text-anchor="middle" font-family="-apple-system,BlinkMacSystemFont,'Segoe UI',sans-serif" font-size="25" font-weight="750">SW</text>
    <text x="500" y="129" text-anchor="middle" font-family="-apple-system,BlinkMacSystemFont,'Segoe UI',sans-serif" font-size="39" font-weight="800" letter-spacing="2">HELLO, I'M SHILONG</text>
    <text x="500" y="158" text-anchor="middle" font-family="-apple-system,BlinkMacSystemFont,'Segoe UI',sans-serif" font-size="14" font-weight="550" letter-spacing="3" opacity=".82">COMPUTATIONAL BIOLOGY · MEDICAL AI</text>
  </g>

  <g font-family="-apple-system,BlinkMacSystemFont,'Segoe UI',sans-serif" font-size="13" fill="#f5f3ff" opacity=".92">
    <g transform="translate(58 214)">
      <circle cx="0" cy="-4" r="9" fill="none" stroke="#fff" stroke-width="1.5"/>
      <path d="M-4-4h8M0-8c3 3 3 5 0 8M0-8c-3 3-3 5 0 8" fill="none" stroke="#fff" stroke-width="1"/>
      <text x="18" y="0">shilongWang1107.github.io</text>
    </g>
    <g transform="translate(774 214)">
      <circle cx="9" cy="-5" r="9" fill="none" stroke="#fff" stroke-width="1.5"/>
      <path d="M5-1c-1 2 1 3 4 3s5-1 4-3c3-1 4-4 2-7 0-2-1-3-2-4-1 0-2 1-3 1H8c-1 0-2-1-3-1-1 1-2 2-2 4-2 3-1 6 2 7z" fill="none" stroke="#fff" stroke-width="1"/>
      <text x="29" y="0">github.com/shilongWang1107</text>
    </g>
  </g>

  <g opacity=".52" fill="none" stroke="#f5d0fe" stroke-width="2">
    <path d="M47 235h75l18-18h57"/>
    <path d="M803 217h57l18 18h75"/>
  </g>
</svg>
