<svg xmlns="http://www.w3.org/2000/svg" width="330" height="245" viewBox="0 0 330 245" role="img" aria-labelledby="title desc">
  <title id="title">Computational biology research illustration</title>
  <desc id="desc">An original illustration of a tissue map connected to an AI network and medical scan.</desc>
  <defs>
    <linearGradient id="panel" x1="0" y1="0" x2="1" y2="1">
      <stop stop-color="#7c3aed"/><stop offset="1" stop-color="#0891b2"/>
    </linearGradient>
    <filter id="shadow"><feDropShadow dx="0" dy="7" stdDeviation="7" flood-opacity=".17"/></filter>
  </defs>
  <g filter="url(#shadow)">
    <rect x="25" y="34" width="280" height="178" rx="28" fill="#f8f7ff" stroke="#ddd6fe" stroke-width="2"/>
  </g>
  <path d="M46 94c37-25 73 12 107-8s65-10 94 8 41 4 58-2V62c0-15-12-28-28-28H53c-16 0-28 13-28 28v47c7-3 13-8 21-15z" fill="url(#panel)" opacity=".96"/>

  <g transform="translate(67 108)">
    <path d="M0 27C5 2 19-10 42-8c23 2 39 20 36 42-3 22-23 35-47 31C8 61-5 49 0 27z" fill="#ede9fe" stroke="#8b5cf6" stroke-width="2"/>
    <g fill="#8b5cf6"><circle cx="20" cy="14" r="5"/><circle cx="43" cy="9" r="4"/><circle cx="57" cy="27" r="6"/><circle cx="31" cy="35" r="6"/><circle cx="13" cy="42" r="4"/><circle cx="48" cy="51" r="4"/></g>
    <g stroke="#a78bfa" stroke-width="1.5"><path d="M20 14l23-5 14 18-26 8-18 7 7-28zM31 35l17 16"/></g>
  </g>

  <g transform="translate(176 99)">
    <rect x="0" y="0" width="92" height="70" rx="10" fill="#0f172a"/>
    <rect x="8" y="8" width="76" height="54" rx="6" fill="#102b43"/>
    <path d="M26 47c1-19 9-30 23-30 15 0 23 11 20 25-3 13-13 17-25 16-12-1-19-3-18-11z" fill="#38bdf8" opacity=".28"/>
    <path d="M37 40c0-9 4-15 12-15 8 0 13 6 11 14-2 8-7 10-14 9s-10-2-9-8z" fill="#f0abfc" opacity=".75"/>
    <path d="M38 35c5 5 10 7 19 5M44 26c3 5 4 12 1 21" fill="none" stroke="#fff" stroke-opacity=".72"/>
    <path d="M34 70h25l5 12H29z" fill="#64748b"/>
    <rect x="20" y="81" width="53" height="6" rx="3" fill="#475569"/>
  </g>

  <g fill="none" stroke="#06b6d4" stroke-width="2" stroke-dasharray="4 4">
    <path d="M145 138C158 125 166 124 176 128"/>
  </g>
  <g fill="#f472b6">
    <circle cx="50" cy="27" r="5"/><circle cx="286" cy="21" r="4"/><circle cx="313" cy="110" r="4"/>
  </g>
  <g fill="#22c55e">
    <rect x="13" y="137" width="8" height="8" rx="2" transform="rotate(17 17 141)"/>
    <rect x="284" y="224" width="8" height="8" rx="2" transform="rotate(-18 288 228)"/>
  </g>
  <g font-family="-apple-system,BlinkMacSystemFont,'Segoe UI',sans-serif" fill="#fff">
    <text x="165" y="61" text-anchor="middle" font-size="15" font-weight="700">FROM CELLS TO INSIGHT</text>
    <text x="165" y="79" text-anchor="middle" font-size="9" letter-spacing="1.5" opacity=".8">SPATIAL OMICS × ARTIFICIAL INTELLIGENCE</text>
  </g>
</svg>
