<svg xmlns="http://www.w3.org/2000/svg" width="410" height="165" viewBox="0 0 410 165" role="img" aria-labelledby="title desc">
  <title id="title">Top Languages</title>
  <desc id="desc">Automatically generated from the official GitHub API.</desc>
  <style>
    text { font-family: -apple-system, BlinkMacSystemFont, "Segoe UI", sans-serif; }
    .title { fill: #f0f6fc; font-size: 16px; font-weight: 600; }
    .value { fill: #f0f6fc; font-size: 20px; font-weight: 650; }
    .label { fill: #8b949e; font-size: 11px; }
    .language { fill: #c9d1d9; font-size: 11px; }
  </style>
  <rect x="0.5" y="0.5" width="409" height="164" rx="8" fill="#0d1117" stroke="#30363d"/>
  <text x="18" y="27" class="title">Top Languages</text>
  <circle cx="21" cy="47" r="4" fill="#58a6ff"/>
  <text x="32" y="51" class="language">Python</text>
  <text x="390" y="51" text-anchor="end" class="label">76.7%</text>
  <rect x="204" y="42" width="176" height="6" rx="3" fill="#21262d"/>
  <rect x="204" y="42" width="135.0" height="6" rx="3" fill="#58a6ff"/>
  <circle cx="21" cy="69" r="4" fill="#a371f7"/>
  <text x="32" y="73" class="language">TypeScript</text>
  <text x="390" y="73" text-anchor="end" class="label">12.9%</text>
  <rect x="204" y="64" width="176" height="6" rx="3" fill="#21262d"/>
  <rect x="204" y="64" width="22.6" height="6" rx="3" fill="#a371f7"/>
  <circle cx="21" cy="91" r="4" fill="#3fb950"/>
  <text x="32" y="95" class="language">CSS</text>
  <text x="390" y="95" text-anchor="end" class="label">3.9%</text>
  <rect x="204" y="86" width="176" height="6" rx="3" fill="#21262d"/>
  <rect x="204" y="86" width="6.8" height="6" rx="3" fill="#3fb950"/>
  <circle cx="21" cy="113" r="4" fill="#d29922"/>
  <text x="32" y="117" class="language">Swift</text>
  <text x="390" y="117" text-anchor="end" class="label">3.2%</text>
  <rect x="204" y="108" width="176" height="6" rx="3" fill="#21262d"/>
  <rect x="204" y="108" width="5.6" height="6" rx="3" fill="#d29922"/>
  <circle cx="21" cy="135" r="4" fill="#f85149"/>
  <text x="32" y="139" class="language">Jupyter Notebook</text>
  <text x="390" y="139" text-anchor="end" class="label">1.5%</text>
  <rect x="204" y="130" width="176" height="6" rx="3" fill="#21262d"/>
  <rect x="204" y="130" width="2.6" height="6" rx="3" fill="#f85149"/>
</svg>
