<svg xmlns="http://www.w3.org/2000/svg" width="410" height="165" viewBox="0 0 410 165" role="img" aria-labelledby="title desc">
  <title id="title">Top Languages</title>
  <desc id="desc">Automatically generated from the official GitHub API.</desc>
  <defs>
    <linearGradient id="accent" x1="0" y1="0" x2="1" y2="1">
      <stop stop-color="#a855f7"/><stop offset="1" stop-color="#22d3ee"/>
    </linearGradient>
  </defs>
  <style>
    text { font-family: -apple-system, BlinkMacSystemFont, "Segoe UI", sans-serif; }
    .title { fill: #f0f6fc; font-size: 16px; font-weight: 650; }
    .value { fill: #f0f6fc; font-size: 20px; font-weight: 700; }
    .label { fill: #8b949e; font-size: 11px; }
    .language { fill: #c9d1d9; font-size: 11px; }
  </style>
  <rect x="0.5" y="0.5" width="409" height="164" rx="10" fill="#0d1117" stroke="#30363d"/>
  <rect x="1" y="1" width="5" height="163" rx="3" fill="url(#accent)"/>
  <text x="22" y="27" class="title">Top Languages</text>
  <circle cx="23" cy="47" r="4" fill="#58a6ff"/>
  <text x="34" y="51" class="language">Python</text>
  <rect x="194" y="42" width="142" height="6" rx="3" fill="#21262d"/>
  <rect x="194" y="42" width="109.0" height="6" rx="3" fill="#58a6ff"/>
  <text x="390" y="51" text-anchor="end" class="label">76.7%</text>
  <circle cx="23" cy="69" r="4" fill="#a371f7"/>
  <text x="34" y="73" class="language">TypeScript</text>
  <rect x="194" y="64" width="142" height="6" rx="3" fill="#21262d"/>
  <rect x="194" y="64" width="18.2" height="6" rx="3" fill="#a371f7"/>
  <text x="390" y="73" text-anchor="end" class="label">12.8%</text>
  <circle cx="23" cy="91" r="4" fill="#3fb950"/>
  <text x="34" y="95" class="language">CSS</text>
  <rect x="194" y="86" width="142" height="6" rx="3" fill="#21262d"/>
  <rect x="194" y="86" width="5.5" height="6" rx="3" fill="#3fb950"/>
  <text x="390" y="95" text-anchor="end" class="label">3.9%</text>
  <circle cx="23" cy="113" r="4" fill="#d29922"/>
  <text x="34" y="117" class="language">Swift</text>
  <rect x="194" y="108" width="142" height="6" rx="3" fill="#21262d"/>
  <rect x="194" y="108" width="4.5" height="6" rx="3" fill="#d29922"/>
  <text x="390" y="117" text-anchor="end" class="label">3.2%</text>
  <circle cx="23" cy="135" r="4" fill="#f85149"/>
  <text x="34" y="139" class="language">Jupyter Notebook</text>
  <rect x="194" y="130" width="142" height="6" rx="3" fill="#21262d"/>
  <rect x="194" y="130" width="2.1" height="6" rx="3" fill="#f85149"/>
  <text x="390" y="139" text-anchor="end" class="label">1.5%</text>
</svg>
